<svg width="430" height="101" viewBox="0 0 430 101" fill="none" xmlns="http://www.w3.org/2000/svg">
<rect x="59" y="30" width="311" height="54" fill="#868C95"/>
<path d="M121.214 55.92H124.958C128.03 55.92 130.622 54.912 132.734 52.896C134.846 50.832 136.094 47.544 136.478 43.032H137.99C137.99 49.848 138.086 54.6 138.278 57.288C134.39 57.096 129.782 57 124.454 57C119.75 57 114.758 57.12 109.478 57.36L127.478 20.856H123.446C116.582 20.856 112.838 25.152 112.214 33.744H110.702C110.702 26.928 110.606 22.176 110.414 19.488C114.302 19.68 118.91 19.776 124.238 19.776C128.942 19.776 133.934 19.656 139.214 19.416L121.214 55.92ZM152.58 57.504C149.508 57.504 147.204 56.712 145.668 55.128C144.18 53.544 143.436 51.456 143.436 48.864C143.436 46.704 143.988 44.928 145.092 43.536C146.244 42.096 147.612 40.992 149.196 40.224C150.828 39.456 152.892 38.64 155.388 37.776C158.028 36.864 159.948 36.048 161.148 35.328C162.396 34.56 163.02 33.528 163.02 32.232V26.616C163.02 24.6 162.54 23.04 161.58 21.936C160.668 20.784 159.228 20.208 157.26 20.208C154.956 20.208 153.204 20.784 152.004 21.936C153.348 22.416 154.38 23.136 155.1 24.096C155.868 25.056 156.252 26.184 156.252 27.48C156.252 29.112 155.7 30.408 154.596 31.368C153.492 32.328 152.148 32.808 150.564 32.808C148.884 32.808 147.588 32.28 146.676 31.224C145.764 30.168 145.308 28.848 145.308 27.264C145.308 25.92 145.62 24.792 146.244 23.88C146.916 22.92 147.924 22.032 149.268 21.216C150.564 20.448 152.148 19.848 154.02 19.416C155.94 18.984 158.028 18.768 160.284 18.768C162.636 18.768 164.676 19.008 166.404 19.488C168.132 19.968 169.572 20.784 170.724 21.936C171.78 22.992 172.476 24.288 172.812 25.824C173.196 27.36 173.388 29.448 173.388 32.088V51.672C173.388 52.824 173.484 53.64 173.676 54.12C173.916 54.6 174.348 54.84 174.972 54.84C175.692 54.84 176.556 54.432 177.564 53.616L178.284 54.84C176.124 56.616 173.484 57.504 170.364 57.504C167.724 57.504 165.876 56.976 164.82 55.92C163.764 54.864 163.212 53.448 163.164 51.672C160.764 55.56 157.236 57.504 152.58 57.504ZM158.124 52.896C159.996 52.896 161.628 51.912 163.02 49.944V35.184C162.444 36.144 161.22 37.2 159.348 38.352C157.476 39.552 156.06 40.752 155.1 41.952C154.14 43.152 153.66 44.88 153.66 47.136C153.66 49.104 154.068 50.568 154.884 51.528C155.7 52.44 156.78 52.896 158.124 52.896ZM194.957 19.776H203.453V21.216H194.957V50.304C194.957 51.744 195.197 52.776 195.677 53.4C196.205 53.976 197.021 54.264 198.125 54.264C200.189 54.264 201.821 52.824 203.021 49.944L204.245 50.592C202.421 55.536 199.133 58.008 194.381 58.008C191.213 58.008 188.813 57.192 187.181 55.56C186.173 54.552 185.477 53.304 185.093 51.816C184.757 50.28 184.589 48.192 184.589 45.552V21.216H178.541V19.776H184.589V10.272C188.573 10.272 192.029 9.504 194.957 7.968V19.776ZM223.949 18.768C229.469 18.768 233.789 20.352 236.909 23.52C240.029 26.64 241.589 31.608 241.589 38.424C241.589 45.24 240.029 50.208 236.909 53.328C233.789 56.448 229.469 58.008 223.949 58.008C218.477 58.008 214.157 56.448 210.989 53.328C207.869 50.208 206.309 45.24 206.309 38.424C206.309 31.608 207.869 26.64 210.989 23.52C214.157 20.352 218.477 18.768 223.949 18.768ZM223.949 20.208C221.885 20.208 220.229 21.72 218.981 24.744C217.781 27.72 217.181 32.28 217.181 38.424C217.181 44.568 217.781 49.128 218.981 52.104C220.229 55.08 221.885 56.568 223.949 56.568C226.061 56.568 227.717 55.104 228.917 52.176C230.117 49.2 230.717 44.616 230.717 38.424C230.717 32.232 230.093 27.648 228.845 24.672C227.645 21.696 226.013 20.208 223.949 20.208ZM281.956 51.744C282.724 52.896 283.348 53.76 283.828 54.336C284.308 54.864 284.932 55.248 285.7 55.488V57C281.86 56.808 279.34 56.712 278.14 56.712C276.556 56.712 273.46 56.808 268.852 57V55.488C269.524 55.488 270.052 55.368 270.436 55.128C270.82 54.888 271.012 54.552 271.012 54.12C271.012 53.88 270.892 53.52 270.652 53.04L263.524 40.152C263.044 39.336 262.54 38.784 262.012 38.496C261.484 38.208 260.812 38.016 259.996 37.92V50.304C259.996 52.272 260.308 53.64 260.932 54.408C261.556 55.128 262.684 55.488 264.316 55.488V57C259.516 56.808 256.396 56.712 254.956 56.712C253.324 56.712 250.012 56.808 245.02 57V55.488C246.7 55.488 247.876 55.128 248.548 54.408C249.268 53.64 249.628 52.272 249.628 50.304V9.264C249.628 7.056 249.268 5.448 248.548 4.44C247.876 3.432 246.7 2.928 245.02 2.928V1.416C246.556 1.56 248.044 1.632 249.484 1.632C253.66 1.632 257.164 1.296 259.996 0.623996V36.552C260.956 36.456 261.772 36.264 262.444 35.976C263.164 35.688 263.788 35.256 264.316 34.68L269.788 29.352C271.372 27.768 272.164 26.304 272.164 24.96C272.164 23.856 271.66 22.992 270.652 22.368C269.644 21.696 268.3 21.312 266.62 21.216V19.776C269.26 19.92 272.068 19.992 275.044 19.992C279.028 19.992 281.836 19.92 283.468 19.776V21.216C280.636 21.84 277.636 23.688 274.468 26.76L269.86 31.512L281.956 51.744ZM296.72 57.504C293.648 57.504 291.344 56.712 289.808 55.128C288.32 53.544 287.576 51.456 287.576 48.864C287.576 46.704 288.128 44.928 289.232 43.536C290.384 42.096 291.752 40.992 293.336 40.224C294.968 39.456 297.032 38.64 299.528 37.776C302.168 36.864 304.088 36.048 305.288 35.328C306.536 34.56 307.16 33.528 307.16 32.232V26.616C307.16 24.6 306.68 23.04 305.72 21.936C304.808 20.784 303.368 20.208 301.4 20.208C299.096 20.208 297.344 20.784 296.144 21.936C297.488 22.416 298.52 23.136 299.24 24.096C300.008 25.056 300.392 26.184 300.392 27.48C300.392 29.112 299.84 30.408 298.736 31.368C297.632 32.328 296.288 32.808 294.704 32.808C293.024 32.808 291.728 32.28 290.816 31.224C289.904 30.168 289.448 28.848 289.448 27.264C289.448 25.92 289.76 24.792 290.384 23.88C291.056 22.92 292.064 22.032 293.408 21.216C294.704 20.448 296.288 19.848 298.16 19.416C300.08 18.984 302.168 18.768 304.424 18.768C306.776 18.768 308.816 19.008 310.544 19.488C312.272 19.968 313.712 20.784 314.864 21.936C315.92 22.992 316.616 24.288 316.952 25.824C317.336 27.36 317.528 29.448 317.528 32.088V51.672C317.528 52.824 317.624 53.64 317.816 54.12C318.056 54.6 318.488 54.84 319.112 54.84C319.832 54.84 320.696 54.432 321.704 53.616L322.424 54.84C320.264 56.616 317.624 57.504 314.504 57.504C311.864 57.504 310.016 56.976 308.96 55.92C307.904 54.864 307.352 53.448 307.304 51.672C304.904 55.56 301.376 57.504 296.72 57.504ZM302.264 52.896C304.136 52.896 305.768 51.912 307.16 49.944V35.184C306.584 36.144 305.36 37.2 303.488 38.352C301.616 39.552 300.2 40.752 299.24 41.952C298.28 43.152 297.8 44.88 297.8 47.136C297.8 49.104 298.208 50.568 299.024 51.528C299.84 52.44 300.92 52.896 302.264 52.896ZM118.409 93.744C119.177 94.896 119.801 95.76 120.281 96.336C120.761 96.864 121.385 97.248 122.153 97.488V99C118.313 98.808 115.793 98.712 114.593 98.712C113.009 98.712 109.913 98.808 105.305 99V97.488C105.977 97.488 106.505 97.368 106.889 97.128C107.273 96.888 107.465 96.552 107.465 96.12C107.465 95.88 107.345 95.52 107.105 95.04L99.9775 82.152C99.4975 81.336 98.9935 80.784 98.4655 80.496C97.9375 80.208 97.2655 80.016 96.4495 79.92V92.304C96.4495 94.272 96.7615 95.64 97.3855 96.408C98.0095 97.128 99.1375 97.488 100.769 97.488V99C95.9695 98.808 92.8495 98.712 91.4095 98.712C89.7775 98.712 86.4655 98.808 81.4735 99V97.488C83.1535 97.488 84.3295 97.128 85.0015 96.408C85.7215 95.64 86.0815 94.272 86.0815 92.304V51.264C86.0815 49.056 85.7215 47.448 85.0015 46.44C84.3295 45.432 83.1535 44.928 81.4735 44.928V43.416C83.0095 43.56 84.4975 43.632 85.9375 43.632C90.1135 43.632 93.6175 43.296 96.4495 42.624V78.552C97.4095 78.456 98.2255 78.264 98.8975 77.976C99.6175 77.688 100.241 77.256 100.769 76.68L106.241 71.352C107.825 69.768 108.617 68.304 108.617 66.96C108.617 65.856 108.113 64.992 107.105 64.368C106.097 63.696 104.753 63.312 103.073 63.216V61.776C105.713 61.92 108.521 61.992 111.497 61.992C115.481 61.992 118.289 61.92 119.921 61.776V63.216C117.089 63.84 114.089 65.688 110.921 68.76L106.313 73.512L118.409 93.744ZM133.173 99.504C130.101 99.504 127.797 98.712 126.261 97.128C124.773 95.544 124.029 93.456 124.029 90.864C124.029 88.704 124.581 86.928 125.685 85.536C126.837 84.096 128.205 82.992 129.789 82.224C131.421 81.456 133.485 80.64 135.981 79.776C138.621 78.864 140.541 78.048 141.741 77.328C142.989 76.56 143.613 75.528 143.613 74.232V68.616C143.613 66.6 143.133 65.04 142.173 63.936C141.261 62.784 139.821 62.208 137.853 62.208C135.549 62.208 133.797 62.784 132.597 63.936C133.941 64.416 134.973 65.136 135.693 66.096C136.461 67.056 136.845 68.184 136.845 69.48C136.845 71.112 136.293 72.408 135.189 73.368C134.085 74.328 132.741 74.808 131.157 74.808C129.477 74.808 128.181 74.28 127.269 73.224C126.357 72.168 125.901 70.848 125.901 69.264C125.901 67.92 126.213 66.792 126.837 65.88C127.509 64.92 128.517 64.032 129.861 63.216C131.157 62.448 132.741 61.848 134.613 61.416C136.533 60.984 138.621 60.768 140.877 60.768C143.229 60.768 145.269 61.008 146.997 61.488C148.725 61.968 150.165 62.784 151.317 63.936C152.373 64.992 153.069 66.288 153.405 67.824C153.789 69.36 153.981 71.448 153.981 74.088V93.672C153.981 94.824 154.077 95.64 154.269 96.12C154.509 96.6 154.941 96.84 155.565 96.84C156.285 96.84 157.149 96.432 158.157 95.616L158.877 96.84C156.717 98.616 154.077 99.504 150.957 99.504C148.317 99.504 146.469 98.976 145.413 97.92C144.357 96.864 143.805 95.448 143.757 93.672C141.357 97.56 137.829 99.504 133.173 99.504ZM138.717 94.896C140.589 94.896 142.221 93.912 143.613 91.944V77.184C143.037 78.144 141.813 79.2 139.941 80.352C138.069 81.552 136.653 82.752 135.693 83.952C134.733 85.152 134.253 86.88 134.253 89.136C134.253 91.104 134.661 92.568 135.477 93.528C136.293 94.44 137.373 94.896 138.717 94.896ZM218.823 92.304C218.823 94.272 219.159 95.64 219.831 96.408C220.551 97.128 221.751 97.488 223.431 97.488V99C218.631 98.808 215.463 98.712 213.927 98.712C212.583 98.712 209.607 98.808 204.999 99V97.488C206.295 97.488 207.183 97.128 207.663 96.408C208.191 95.688 208.455 94.32 208.455 92.304V69.912C208.455 67.896 208.143 66.408 207.519 65.448C206.943 64.44 205.815 63.936 204.135 63.936C202.359 63.936 200.799 64.68 199.455 66.168C198.159 67.656 197.391 69.48 197.151 71.64V72.936V92.304C197.151 94.272 197.439 95.64 198.015 96.408C198.639 97.128 199.743 97.488 201.327 97.488V99C196.719 98.808 193.695 98.712 192.255 98.712C190.911 98.712 187.935 98.808 183.327 99V97.488C184.623 97.488 185.511 97.128 185.991 96.408C186.519 95.64 186.783 94.272 186.783 92.304V69.912C186.783 67.896 186.519 66.408 185.991 65.448C185.463 64.44 184.431 63.936 182.895 63.936C180.975 63.936 179.319 64.752 177.927 66.384C176.583 67.968 175.911 69.936 175.911 72.288V92.304C175.911 94.272 176.151 95.64 176.631 96.408C177.159 97.128 178.071 97.488 179.367 97.488V99C175.143 98.808 172.311 98.712 170.871 98.712C169.431 98.712 166.119 98.808 160.935 99V97.488C162.663 97.488 163.863 97.128 164.535 96.408C165.207 95.64 165.543 94.272 165.543 92.304V69.624C165.543 67.416 165.207 65.808 164.535 64.8C163.863 63.792 162.663 63.288 160.935 63.288V61.776C162.471 61.92 163.959 61.992 165.399 61.992C169.671 61.992 173.175 61.656 175.911 60.984V67.464C178.023 63 181.743 60.768 187.071 60.768C190.719 60.768 193.359 61.704 194.991 63.576C195.903 64.536 196.503 65.976 196.791 67.896C198.039 65.304 199.671 63.48 201.687 62.424C203.703 61.32 206.055 60.768 208.743 60.768C212.391 60.768 215.031 61.704 216.663 63.576C217.431 64.44 217.983 65.616 218.319 67.104C218.655 68.592 218.823 70.536 218.823 72.936V92.304ZM235.475 43.2C237.491 43.2 239.075 43.704 240.227 44.712C241.427 45.672 242.027 47.016 242.027 48.744C242.027 50.472 241.427 51.84 240.227 52.848C239.075 53.808 237.491 54.288 235.475 54.288C233.459 54.288 231.851 53.808 230.651 52.848C229.499 51.84 228.923 50.472 228.923 48.744C228.923 47.016 229.499 45.672 230.651 44.712C231.851 43.704 233.459 43.2 235.475 43.2ZM241.091 92.304C241.091 94.272 241.427 95.64 242.099 96.408C242.819 97.128 244.019 97.488 245.699 97.488V99C240.899 98.808 237.707 98.712 236.123 98.712C234.635 98.712 231.299 98.808 226.115 99V97.488C227.843 97.488 229.043 97.128 229.715 96.408C230.387 95.64 230.723 94.272 230.723 92.304V69.624C230.723 67.416 230.387 65.808 229.715 64.8C229.043 63.792 227.843 63.288 226.115 63.288V61.776C227.651 61.92 229.139 61.992 230.579 61.992C234.851 61.992 238.355 61.656 241.091 60.984V92.304ZM269.994 94.104C273.93 94.104 277.098 92.184 279.498 88.344L280.794 88.776C279.834 91.896 278.106 94.56 275.61 96.768C273.162 98.928 270.09 100.008 266.394 100.008C261.306 100.008 257.25 98.4 254.226 95.184C251.25 91.92 249.762 87.12 249.762 80.784C249.762 74.304 251.37 69.36 254.586 65.952C257.802 62.496 262.074 60.768 267.402 60.768C276.426 60.768 280.938 66.096 280.938 76.752H260.706C260.658 77.472 260.634 78.6 260.634 80.136C260.634 83.304 261.066 85.944 261.93 88.056C262.842 90.168 263.994 91.704 265.386 92.664C266.826 93.624 268.362 94.104 269.994 94.104ZM266.97 62.28C265.242 62.28 263.802 63.36 262.65 65.52C261.546 67.632 260.85 70.92 260.562 75.384H271.866C271.962 71.592 271.578 68.472 270.714 66.024C269.898 63.528 268.65 62.28 266.97 62.28ZM311.469 60.768C315.117 60.768 317.757 61.704 319.389 63.576C320.205 64.488 320.781 65.664 321.117 67.104C321.453 68.544 321.621 70.488 321.621 72.936V92.304C321.621 94.272 321.957 95.64 322.629 96.408C323.349 97.128 324.549 97.488 326.229 97.488V99C321.429 98.808 318.261 98.712 316.725 98.712C315.285 98.712 312.165 98.808 307.365 99V97.488C308.805 97.488 309.813 97.128 310.389 96.408C310.965 95.64 311.253 94.272 311.253 92.304V69.912C311.253 67.944 310.917 66.456 310.245 65.448C309.621 64.44 308.469 63.936 306.789 63.936C304.821 63.936 303.141 64.752 301.749 66.384C300.357 67.968 299.661 69.936 299.661 72.288V92.304C299.661 94.272 299.949 95.64 300.525 96.408C301.101 97.128 302.109 97.488 303.549 97.488V99C299.133 98.808 296.157 98.712 294.621 98.712C293.181 98.712 289.869 98.808 284.685 99V97.488C286.413 97.488 287.613 97.128 288.285 96.408C288.957 95.64 289.293 94.272 289.293 92.304V69.624C289.293 67.416 288.957 65.808 288.285 64.8C287.613 63.792 286.413 63.288 284.685 63.288V61.776C286.221 61.92 287.709 61.992 289.149 61.992C293.421 61.992 296.925 61.656 299.661 60.984V67.464C301.821 63 305.757 60.768 311.469 60.768ZM338.272 43.2C340.288 43.2 341.872 43.704 343.024 44.712C344.224 45.672 344.824 47.016 344.824 48.744C344.824 50.472 344.224 51.84 343.024 52.848C341.872 53.808 340.288 54.288 338.272 54.288C336.256 54.288 334.648 53.808 333.448 52.848C332.296 51.84 331.72 50.472 331.72 48.744C331.72 47.016 332.296 45.672 333.448 44.712C334.648 43.704 336.256 43.2 338.272 43.2ZM343.888 92.304C343.888 94.272 344.224 95.64 344.896 96.408C345.616 97.128 346.816 97.488 348.496 97.488V99C343.696 98.808 340.504 98.712 338.92 98.712C337.432 98.712 334.096 98.808 328.912 99V97.488C330.64 97.488 331.84 97.128 332.512 96.408C333.184 95.64 333.52 94.272 333.52 92.304V69.624C333.52 67.416 333.184 65.808 332.512 64.8C331.84 63.792 330.64 63.288 328.912 63.288V61.776C330.448 61.92 331.936 61.992 333.376 61.992C337.648 61.992 341.152 61.656 343.888 60.984V92.304Z" fill="black"/>
</svg>
